<?xml version="1.0" encoding="UTF-8" standalone="no"?>
<!-- Created with Inkscape (http://www.inkscape.org/) -->
<svg xmlns:inkscape="http://www.inkscape.org/namespaces/inkscape" xmlns:sodipodi="http://sodipodi.sourceforge.net/DTD/sodipodi-0.dtd" xmlns="http://www.w3.org/2000/svg" xmlns:svg="http://www.w3.org/2000/svg" version="1.1" id="svg2" width="2000" height="1466.6667" viewBox="0 0 2000 1466.6667" sodipodi:docname="WhiteBackground_Color_ExtLogo.eps">
  <defs id="defs6"></defs>
  <g id="g8" inkscape:groupmode="layer" inkscape:label="ink_ext_XXXXXX" transform="matrix(1.3333333,0,0,-1.3333333,0,1466.6667)">
    <g id="g10" transform="scale(0.1)">
      <path d="m 3631.3,6612.42 h -668.55 c -34.28,0 -62.06,-27.79 -62.06,-62.07 V 5319.36 c 0,-34.28 27.78,-62.06 62.06,-62.06 h 766.65 c 37.87,0 66.91,-33.62 61.41,-71.08 l -33.65,-229.19 c -4.48,-30.47 -30.61,-53.05 -61.41,-53.05 H 2578.49 c -34.28,0 -62.07,27.78 -62.07,62.06 v 3413.39 c 0,34.28 27.79,62.07 62.07,62.07 h 1097.95 c 34.28,0 62.07,-27.79 62.07,-62.07 v -231.69 c 0,-34.28 -27.79,-62.06 -62.07,-62.06 h -713.69 c -34.28,0 -62.06,-27.79 -62.06,-62.07 V 7027.8 c 0,-34.28 27.78,-62.06 62.06,-62.06 h 668.55 c 34.28,0 62.07,-27.79 62.07,-62.07 v -229.19 c 0,-34.28 -27.79,-62.06 -62.07,-62.06" style="fill:#0f2b20;fill-opacity:1;fill-rule:nonzero;stroke:none" id="path12"></path>
      <path d="m 4196.2,8441.5 h 1114.1 c 34.28,0 62.07,-27.79 62.07,-62.07 v -231.69 c 0,-34.28 -27.79,-62.06 -62.07,-62.06 h -729.84 c -34.28,0 -62.06,-27.79 -62.06,-62.07 V 7006.35 c 0,-34.28 27.78,-62.07 62.06,-62.07 h 681.65 c 34.28,0 62.06,-27.78 62.06,-62.06 v -231.7 c 0,-34.27 -27.78,-62.06 -62.06,-62.06 h -681.65 c -34.28,0 -62.06,-27.79 -62.06,-62.07 V 4966.04 c 0,-34.28 -27.79,-62.06 -62.07,-62.06 H 4196.2 c -34.28,0 -62.07,27.78 -62.07,62.06 v 3413.39 c 0,34.28 27.79,62.07 62.07,62.07" style="fill:#0f2b20;fill-opacity:1;fill-rule:nonzero;stroke:none" id="path14"></path>
      <path d="m 9449.22,5902.12 c 34.28,0 62.06,-27.78 62.06,-62.06 v -143.64 c 0,-329.93 113.42,-506.59 359.46,-506.59 251.36,0 349.46,184.25 349.46,564.51 0,412.48 -90.6,571.29 -463.55,862.01 -378.5,296.28 -571.11,475.52 -571.11,997.01 0,449.04 134.63,880.82 693.57,878.05 532.49,-2.79 669.89,-358.57 669.89,-804.73 v -103.24 c 0,-34.28 -27.8,-62.07 -62.1,-62.07 h -257.6 c -34.3,0 -62.1,27.79 -62.1,62.07 v 92.93 c 0,291.48 -56.6,479.29 -295.89,479.29 -239.62,0 -301.48,-210.09 -301.48,-485.42 0,-325.17 64.63,-449.75 388.48,-694.45 492.89,-372.11 648.69,-580.07 648.69,-1167.62 0,-497.52 -143.6,-951.58 -743.5,-951.58 -574.84,0 -736.48,376.04 -736.48,842.06 v 141.41 c 0,34.28 27.79,62.06 62.07,62.06 h 260.13" style="fill:#0f2b20;fill-opacity:1;fill-rule:nonzero;stroke:none" id="path16"></path>
      <path d="m 10992.2,4966.04 v 3413.39 c 0,34.28 27.8,62.07 62,62.07 h 348.9 c 27.7,0 52,-18.12 59.6,-44.71 196.8,-683.9 665.5,-2458.61 721,-2736.49 h 8.1 c -20.9,473.77 -26.4,971.56 -26.4,1548.52 v 1170.61 c 0,34.28 27.7,62.07 62,62.07 h 237.5 c 34.3,0 62.1,-27.79 62.1,-62.07 V 4966.04 c 0,-34.28 -27.8,-62.06 -62.1,-62.06 h -333.1 c -27.8,0 -52.2,18.31 -59.7,45.11 -194.1,692.82 -678.8,2560.31 -742.8,2829.72 h -5.3 c 23.7,-426.16 32.4,-987.4 32.4,-1625.68 V 4966.04 c 0,-34.28 -27.8,-62.06 -62.1,-62.06 h -240.1 c -34.2,0 -62,27.78 -62,62.06" style="fill:#0f2b20;fill-opacity:1;fill-rule:nonzero;stroke:none" id="path18"></path>
      <path d="m 8788.73,7989.21 -55.73,57.15 c -33.07,33.93 -87.41,34.56 -121.26,1.41 L 7311.72,6774.88 c -33.67,-32.96 -87.63,-32.55 -120.79,0.92 l -307.44,310.36 c -32.76,33.07 -85.94,33.93 -119.75,1.93 L 6526.5,6863.56 c -34.84,-32.98 -35.81,-88.14 -2.15,-122.32 l 688.5,-699.31 c 36.08,-36.64 96.08,-33.47 128.09,6.77 l 1453.49,1827.38 c 26.86,33.77 24.42,82.24 -5.7,113.13" style="fill:#33a372;fill-opacity:1;fill-rule:nonzero;stroke:none" id="path20"></path>
      <path d="m 7802.69,5226.49 c -129.43,-24.51 -264.54,-32.7 -403.24,-21.97 -747.53,57.87 -1347.08,662.12 -1399.91,1410.03 -62.89,890.54 643.84,1635.29 1521.23,1635.29 96.38,0 190.55,-9.38 281.91,-26.81 39.79,-7.6 76.48,23.04 76.48,63.55 v 246.75 c 0,31.54 -22.57,59.03 -53.7,64.1 -234.84,38.24 -483.95,33.87 -739.71,-23.43 C 6361.51,8411.76 5807.71,7844.8 5662.03,7117.05 5417.81,5897.01 6344.29,4826.63 7520.77,4826.63 c 103.88,0 205.61,8.89 304.86,25.19 31.04,5.1 53.53,32.47 53.53,63.93 v 247.18 c 0,40.51 -36.67,71.1 -76.47,63.56" style="fill:#0f2b20;fill-opacity:1;fill-rule:nonzero;stroke:none" id="path22"></path>
      <path d="m 2610.18,3337 v 96.85 h 267.14 V 3337 Z m 0,251.01 v 96.84 h 246.15 v -96.84 z m 0,241.29 v 96.85 h 260.67 V 3829.3 Z M 2514.14,3337 v 589.15 h 112.18 V 3337 h -112.18" style="fill:#0f2b20;fill-opacity:1;fill-rule:nonzero;stroke:none" id="path24"></path>
      <path d="m 3135.56,3323.29 c -50.58,0 -89.72,16.66 -117.42,50.03 -27.72,33.37 -41.57,82.86 -41.57,148.5 v 254.22 h 112.18 v -263.9 c 0,-26.91 7.53,-48.31 22.6,-64.16 15.05,-15.89 35.51,-23.81 61.34,-23.81 25.81,0 46.93,8.33 63.34,25.02 16.41,16.67 24.61,39.26 24.61,67.8 v 259.05 h 112.19 V 3337 h -88.78 v 186.43 h 8.88 c 0,-44.11 -5.64,-80.98 -16.95,-110.56 -11.3,-29.59 -28.24,-51.92 -50.85,-66.99 -22.59,-15.04 -50.83,-22.59 -84.73,-22.59 h -4.84" style="fill:#0f2b20;fill-opacity:1;fill-rule:nonzero;stroke:none" id="path26"></path>
      <path d="m 3501.94,3337 v 438.23 h 88.78 v -185.61 h -2.42 c 0,62.94 13.45,110.55 40.35,142.84 26.9,32.29 66.45,48.41 118.64,48.41 h 16.14 v -97.65 h -30.67 c -37.66,0 -66.86,-10.08 -87.56,-30.25 -20.72,-20.18 -31.07,-49.37 -31.07,-87.57 V 3337 h -112.19" style="fill:#0f2b20;fill-opacity:1;fill-rule:nonzero;stroke:none" id="path28"></path>
      <path d="m 4045.89,3417.71 c 27.44,0 50.56,6.05 69.41,18.15 18.82,12.12 33.08,28.52 42.76,49.24 9.7,20.7 14.54,44.24 14.54,70.62 0,26.89 -4.99,50.7 -14.94,71.42 -9.96,20.7 -24.48,37.12 -43.58,49.24 -19.1,12.09 -41.83,18.15 -68.19,18.15 -26.37,0 -49.1,-6.06 -68.19,-18.15 -19.11,-12.12 -33.77,-28.54 -43.99,-49.24 -10.23,-20.72 -15.34,-44.53 -15.34,-71.42 0,-26.38 4.97,-49.92 14.94,-70.62 9.95,-20.72 24.34,-37.12 43.17,-49.24 18.83,-12.1 41.97,-18.15 69.41,-18.15 z m 0,-96.03 c -38.74,0 -72.91,6.19 -102.49,18.56 -29.6,12.36 -54.62,29.18 -75.06,50.43 -20.45,21.25 -35.91,45.32 -46.41,72.23 -10.49,26.9 -15.73,54.89 -15.73,83.94 v 16.95 c 0,30.13 5.51,58.77 16.55,85.95 11.02,27.17 26.89,51.36 47.6,72.63 20.72,21.25 45.87,37.93 75.46,50.03 29.59,12.12 62.96,18.17 100.08,18.17 37.12,0 70.48,-6.05 100.07,-18.17 29.58,-12.1 54.74,-28.78 75.46,-50.03 20.7,-21.27 36.45,-45.46 47.21,-72.63 10.76,-27.18 16.14,-55.82 16.14,-85.95 v -16.95 c 0,-29.05 -5.24,-57.04 -15.73,-83.94 -10.5,-26.91 -25.96,-50.98 -46.41,-72.23 -20.45,-21.25 -45.47,-38.07 -75.05,-50.43 -29.6,-12.37 -63.49,-18.56 -101.69,-18.56" style="fill:#0f2b20;fill-opacity:1;fill-rule:nonzero;stroke:none" id="path30"></path>
      <path d="m 4615.65,3416.9 c 24.21,0 45.32,5.91 63.35,17.76 18.02,11.84 32.14,28.37 42.37,49.64 10.22,21.25 15.33,45.32 15.33,72.22 0,27.97 -5.11,52.19 -15.33,72.63 -10.23,20.45 -24.35,36.45 -42.37,48.03 -18.03,11.55 -39.14,17.35 -63.35,17.35 -22.06,0 -42.37,-4.85 -60.93,-14.53 -18.56,-9.68 -33.64,-23.94 -45.19,-42.78 -11.58,-18.83 -17.36,-41.44 -17.36,-67.77 v -32.29 c 0,-25.3 5.92,-46.81 17.76,-64.56 11.83,-17.76 27.16,-31.48 46,-41.17 18.83,-9.68 38.74,-14.53 59.72,-14.53 z m -232.43,-241.3 v 599.63 h 88.77 v -188.85 l -13.72,0.82 c 2.16,44.64 11.44,82.04 27.85,112.17 16.4,30.12 38.33,52.58 65.78,67.39 27.44,14.79 58.1,22.18 91.99,22.18 31.2,0 59.33,-5.63 84.34,-16.94 25.02,-11.3 46.54,-27.17 64.57,-47.61 18.02,-20.45 31.87,-44.26 41.55,-71.42 9.7,-27.19 14.54,-56.38 14.54,-87.57 v -16.95 c 0,-31.76 -4.72,-61.21 -14.12,-88.37 -9.43,-27.16 -23.15,-51.12 -41.17,-71.82 -18.03,-20.72 -39.68,-36.87 -64.96,-48.42 -25.3,-11.57 -53.55,-17.35 -84.75,-17.35 -32.82,0 -62.82,6.85 -89.98,20.57 -27.17,13.71 -49.1,34.96 -65.77,63.76 -16.69,28.77 -26.1,66.04 -28.25,111.78 l 35.51,-54.07 V 3175.6 h -112.18" style="fill:#0f2b20;fill-opacity:1;fill-rule:nonzero;stroke:none" id="path32"></path>
      <path d="m 5143.44,3321.68 c -37.67,0 -70.61,6.45 -98.87,19.37 -28.24,12.9 -51.64,30.26 -70.2,52.06 -18.57,21.78 -32.56,46.12 -41.97,73.03 -9.42,26.89 -14.12,54.32 -14.12,82.31 v 15.34 c 0,29.05 4.7,57.16 14.12,84.33 9.41,27.16 23.4,51.37 41.97,72.64 18.56,21.24 41.56,38.18 69,50.83 27.43,12.65 59.17,18.98 95.23,18.98 47.33,0 87.02,-10.37 119.04,-31.08 32,-20.72 56.08,-47.9 72.23,-81.5 16.14,-33.65 24.2,-69.81 24.2,-108.54 v -40.36 H 4965.9 v 68.6 h 317.97 l -34.7,-33.9 c 0,27.97 -4.04,51.91 -12.11,71.82 -8.07,19.9 -20.32,35.24 -36.72,46 -16.42,10.76 -37,16.15 -61.74,16.15 -24.75,0 -45.74,-5.66 -62.95,-16.95 -17.23,-11.3 -30.26,-27.59 -39.14,-48.82 -8.88,-21.27 -13.31,-46.69 -13.31,-76.27 0,-27.44 4.29,-51.78 12.9,-73.04 8.6,-21.26 21.79,-37.94 39.55,-50.04 17.75,-12.1 40.35,-18.16 67.79,-18.16 27.44,0 49.76,5.51 66.99,16.55 17.21,11.02 28.24,24.62 33.08,40.75 h 103.31 c -6.46,-30.13 -18.85,-56.49 -37.13,-79.08 -18.3,-22.6 -41.56,-40.1 -69.8,-52.46 -28.26,-12.37 -60.41,-18.56 -96.45,-18.56" style="fill:#0f2b20;fill-opacity:1;fill-rule:nonzero;stroke:none" id="path34"></path>
      <path d="m 5713.2,3337 v 129.94 h -18.56 v 144.46 c 0,25.29 -6.18,44.11 -18.56,56.5 -12.38,12.37 -31.47,18.56 -57.3,18.56 -13.45,0 -29.59,-0.27 -48.42,-0.8 -18.83,-0.55 -37.81,-1.21 -56.9,-2.04 -19.1,-0.8 -36.18,-1.73 -51.24,-2.81 v 95.23 c 12.37,1.06 26.35,2.14 41.96,3.22 15.61,1.08 31.61,1.74 48.02,2.02 16.41,0.27 31.88,0.42 46.41,0.42 45.2,0 82.72,-5.93 112.58,-17.76 29.86,-11.84 52.46,-30.4 67.79,-55.7 15.34,-25.29 23.01,-58.37 23.01,-99.26 V 3337 Z m -141.22,-11.29 c -31.76,0 -59.6,5.66 -83.53,16.95 -23.95,11.29 -42.51,27.44 -55.69,48.41 -13.19,21 -19.77,46.28 -19.77,75.87 0,32.29 7.93,58.63 23.81,79.09 15.86,20.45 38.19,35.77 66.98,46 28.77,10.22 62.55,15.34 101.29,15.34 h 101.68 v -66.99 h -103.3 c -25.82,0 -45.6,-6.33 -59.32,-18.96 -13.72,-12.65 -20.57,-28.92 -20.57,-48.82 0,-19.92 6.85,-36.06 20.57,-48.43 13.72,-12.38 33.5,-18.56 59.32,-18.56 15.6,0 29.99,2.82 43.17,8.47 13.18,5.66 24.22,15.34 33.1,29.05 8.87,13.73 13.84,32.42 14.92,56.1 l 27.44,-31.48 c -2.69,-30.66 -10.08,-56.49 -22.19,-77.48 -12.1,-20.98 -28.78,-36.99 -50.04,-48.01 -21.26,-11.02 -47.21,-16.55 -77.87,-16.55" style="fill:#0f2b20;fill-opacity:1;fill-rule:nonzero;stroke:none" id="path36"></path>
      <path d="m 5922.23,3337 v 438.23 H 6011 V 3587.2 h -8.06 c 0,44.64 5.91,81.91 17.75,111.76 11.83,29.87 29.45,52.33 52.86,67.4 23.4,15.04 52.58,22.58 87.56,22.58 h 4.85 c 52.17,0 91.72,-16.82 118.63,-50.42 26.89,-33.64 40.36,-83.82 40.36,-150.51 V 3337 h -112.19 v 260.69 c 0,26.89 -7.67,48.69 -23,65.36 -15.33,16.68 -36.45,25.02 -63.35,25.02 -27.44,0 -49.64,-8.47 -66.58,-25.42 -16.95,-16.95 -25.42,-39.68 -25.42,-68.2 V 3337 h -112.18" style="fill:#0f2b20;fill-opacity:1;fill-rule:nonzero;stroke:none" id="path38"></path>
      <path d="m 6726.84,3582.35 v 96.84 l 235.65,0.81 v -96.85 z m 0,246.95 v 96.85 h 246.95 V 3829.3 Z M 6628.37,3337 v 589.15 h 114.6 V 3337 h -114.6" style="fill:#0f2b20;fill-opacity:1;fill-rule:nonzero;stroke:none" id="path40"></path>
      <path d="m 7320.82,3337 v 129.94 h -18.56 v 144.46 c 0,25.29 -6.18,44.11 -18.56,56.5 -12.38,12.37 -31.47,18.56 -57.3,18.56 -13.45,0 -29.6,-0.27 -48.42,-0.8 -18.84,-0.55 -37.81,-1.21 -56.9,-2.04 -19.1,-0.8 -36.18,-1.73 -51.24,-2.81 v 95.23 c 12.36,1.06 26.35,2.14 41.96,3.22 15.61,1.08 31.6,1.74 48.02,2.02 16.41,0.27 31.88,0.42 46.41,0.42 45.19,0 82.72,-5.93 112.58,-17.76 29.86,-11.84 52.46,-30.4 67.79,-55.7 15.34,-25.29 23.01,-58.37 23.01,-99.26 V 3337 Z m -141.22,-11.29 c -31.76,0 -59.6,5.66 -83.53,16.95 -23.95,11.29 -42.51,27.44 -55.69,48.41 -13.19,21 -19.77,46.28 -19.77,75.87 0,32.29 7.93,58.63 23.81,79.09 15.86,20.45 38.19,35.77 66.98,46 28.77,10.22 62.54,15.34 101.28,15.34 h 101.69 v -66.99 h -103.3 c -25.82,0 -45.6,-6.33 -59.32,-18.96 -13.72,-12.65 -20.57,-28.92 -20.57,-48.82 0,-19.92 6.85,-36.06 20.57,-48.43 13.72,-12.38 33.5,-18.56 59.32,-18.56 15.6,0 29.98,2.82 43.17,8.47 13.18,5.66 24.22,15.34 33.1,29.05 8.87,13.73 13.84,32.42 14.92,56.1 l 27.44,-31.48 c -2.69,-30.66 -10.09,-56.49 -22.19,-77.48 -12.1,-20.98 -28.79,-36.99 -50.04,-48.01 -21.26,-11.02 -47.21,-16.55 -77.87,-16.55" style="fill:#0f2b20;fill-opacity:1;fill-rule:nonzero;stroke:none" id="path42"></path>
      <path d="m 7724.34,3321.68 c -38.2,0 -71.16,6.45 -98.86,19.37 -27.71,12.9 -50.84,30.13 -69.41,51.65 -18.56,21.51 -32.41,45.73 -41.56,72.63 -9.15,26.89 -13.71,54.33 -13.71,82.32 v 15.33 c 0,29.58 4.7,57.97 14.12,85.14 9.4,27.16 23.53,51.37 42.37,72.64 18.83,21.24 42.09,38.18 69.8,50.83 27.71,12.65 59.86,18.98 96.44,18.98 38.2,0 72.36,-7.41 102.5,-22.2 30.13,-14.81 54.19,-35.38 72.23,-61.74 18.02,-26.36 28.11,-57.03 30.27,-91.99 h -108.96 c -2.69,22.58 -12.24,41.42 -28.65,56.48 -16.41,15.07 -38.87,22.61 -67.39,22.61 -24.74,0 -45.33,-5.93 -61.73,-17.76 -16.42,-11.84 -28.65,-28.13 -36.72,-48.83 -8.07,-20.72 -12.11,-44.53 -12.11,-71.42 0,-25.83 3.9,-49.24 11.71,-70.22 7.78,-20.97 19.89,-37.39 36.31,-49.23 16.41,-11.83 37.53,-17.76 63.35,-17.76 19.37,0 36.04,3.5 50.04,10.51 13.99,6.97 25.14,16.65 33.49,29.05 8.34,12.37 13.58,26.35 15.74,41.97 h 108.95 c -2.16,-35.51 -12.51,-66.59 -31.08,-93.22 -18.56,-26.64 -43.05,-47.48 -73.43,-62.55 -30.4,-15.06 -64.97,-22.59 -103.71,-22.59" style="fill:#0f2b20;fill-opacity:1;fill-rule:nonzero;stroke:none" id="path44"></path>
      <path d="m 8212.6,3331.37 c -40.36,0 -73.59,5.23 -99.68,15.72 -26.1,10.51 -45.59,28.26 -58.51,53.26 -12.91,25.03 -19.37,58.78 -19.37,101.3 l 0.81,397.06 h 104.91 l -0.8,-404.33 c 0,-21.52 5.77,-38.07 17.35,-49.64 11.56,-11.57 28.1,-17.35 49.63,-17.35 h 68.6 v -96.02 z m -246.96,361.53 v 82.33 h 309.9 v -82.33 h -309.9" style="fill:#0f2b20;fill-opacity:1;fill-rule:nonzero;stroke:none" id="path46"></path>
      <path d="m 8332.84,3514.55 v 98.46 h 214.33 v -98.46 h -214.33" style="fill:#0f2b20;fill-opacity:1;fill-rule:nonzero;stroke:none" id="path48"></path>
      <path d="m 8923.24,3321.68 c -53.27,0 -99,9.41 -137.2,28.25 -38.2,18.81 -69.27,43.29 -93.21,73.43 -23.94,30.13 -41.56,62.95 -52.86,98.46 -11.3,35.51 -16.94,69.66 -16.94,102.5 v 17.75 c 0,36.58 5.77,72.63 17.35,108.14 11.56,35.51 29.45,67.8 53.67,96.85 24.2,29.05 55,52.31 92.4,69.81 37.39,17.48 81.64,26.23 132.76,26.23 53.27,0 99.67,-9.56 139.21,-28.65 39.55,-19.11 71.15,-46.01 94.83,-80.72 23.67,-34.68 37.93,-75.19 42.77,-121.44 h -115.4 c -4.32,26.89 -13.86,49.62 -28.65,68.18 -14.81,18.58 -33.5,32.56 -56.09,41.97 -22.6,9.41 -48.16,14.13 -76.67,14.13 -29.06,0 -54.88,-4.98 -77.48,-14.93 -22.59,-9.96 -41.44,-24.09 -56.49,-42.38 -15.07,-18.28 -26.51,-39.81 -34.3,-64.56 -7.8,-24.74 -11.7,-52.2 -11.7,-82.31 0,-29.06 3.9,-55.97 11.7,-80.7 7.79,-24.76 19.5,-46.42 35.1,-64.98 15.61,-18.56 34.83,-32.96 57.71,-43.18 22.87,-10.21 49.35,-15.32 79.49,-15.32 44.11,0 81.38,10.89 111.78,32.68 30.38,21.79 48.83,52.33 55.28,91.61 h 115.4 c -5.38,-41.98 -19.64,-80.45 -42.76,-115.41 -23.15,-35 -54.89,-62.97 -95.24,-83.94 -40.35,-20.98 -88.51,-31.47 -144.46,-31.47" style="fill:#0f2b20;fill-opacity:1;fill-rule:nonzero;stroke:none" id="path50"></path>
      <path d="m 9293.67,3337 v 589.15 h 112.19 v -343.8 h -19.38 c 0,44.11 5.66,81.51 16.95,112.18 11.3,30.66 28.11,54.07 50.45,70.22 22.31,16.12 50.7,24.19 85.14,24.19 h 4.84 c 50.03,0 87.97,-17.22 113.79,-51.63 25.83,-34.45 38.74,-84.49 38.74,-150.11 V 3337 h -112.18 v 260.69 c 0,27.97 -7.94,50.02 -23.81,66.17 -15.87,16.14 -36.72,24.21 -62.54,24.21 -27.45,0 -49.64,-9.02 -66.58,-27.03 -16.95,-18.03 -25.42,-41.57 -25.42,-70.62 V 3337 h -112.19" style="fill:#0f2b20;fill-opacity:1;fill-rule:nonzero;stroke:none" id="path52"></path>
      <path d="m 10012.7,3321.68 c -37.62,0 -70.57,6.45 -98.82,19.37 -28.24,12.9 -51.64,30.26 -70.21,52.06 -18.56,21.78 -32.56,46.12 -41.97,73.03 -9.41,26.89 -14.12,54.32 -14.12,82.31 v 15.34 c 0,29.05 4.71,57.16 14.12,84.33 9.41,27.16 23.41,51.37 41.97,72.64 18.57,21.24 41.56,38.18 69,50.83 27.44,12.65 59.18,18.98 95.23,18.98 47.3,0 87,-10.37 119,-31.08 32,-20.72 56.1,-47.9 72.3,-81.5 16.1,-33.65 24.2,-69.81 24.2,-108.54 v -40.36 h -388.2 v 68.6 h 318 l -34.7,-33.9 c 0,27.97 -4.1,51.91 -12.1,71.82 -8.1,19.9 -20.4,35.24 -36.8,46 -16.4,10.76 -37,16.15 -61.7,16.15 -24.75,0 -45.74,-5.66 -62.95,-16.95 -17.22,-11.3 -30.26,-27.59 -39.13,-48.82 -8.88,-21.27 -13.32,-46.69 -13.32,-76.27 0,-27.44 4.29,-51.78 12.9,-73.04 8.61,-21.26 21.8,-37.94 39.55,-50.04 17.76,-12.1 40.36,-18.16 67.75,-18.16 27.5,0 49.8,5.51 67,16.55 17.2,11.02 28.3,24.62 33.1,40.75 h 103.3 c -6.4,-30.13 -18.8,-56.49 -37.1,-79.08 -18.3,-22.6 -41.6,-40.1 -69.8,-52.46 -28.3,-12.37 -60.4,-18.56 -96.5,-18.56" style="fill:#0f2b20;fill-opacity:1;fill-rule:nonzero;stroke:none" id="path54"></path>
      <path d="m 10511.5,3321.68 c -38.2,0 -71.2,6.45 -98.9,19.37 -27.7,12.9 -50.8,30.13 -69.4,51.65 -18.5,21.51 -32.4,45.73 -41.5,72.63 -9.2,26.89 -13.8,54.33 -13.8,82.32 v 15.33 c 0,29.58 4.7,57.97 14.2,85.14 9.4,27.16 23.5,51.37 42.3,72.64 18.9,21.24 42.1,38.18 69.8,50.83 27.7,12.65 59.9,18.98 96.5,18.98 38.2,0 72.3,-7.41 102.5,-22.2 30.1,-14.81 54.2,-35.38 72.2,-61.74 18,-26.36 28.1,-57.03 30.3,-91.99 h -109 c -2.7,22.58 -12.2,41.42 -28.6,56.48 -16.4,15.07 -38.9,22.61 -67.4,22.61 -24.8,0 -45.4,-5.93 -61.8,-17.76 -16.4,-11.84 -28.6,-28.13 -36.7,-48.83 -8.1,-20.72 -12.1,-44.53 -12.1,-71.42 0,-25.83 3.9,-49.24 11.7,-70.22 7.8,-20.97 19.9,-37.39 36.3,-49.23 16.4,-11.83 37.6,-17.76 63.4,-17.76 19.4,0 36,3.5 50,10.51 14,6.97 25.2,16.65 33.5,29.05 8.3,12.37 13.6,26.35 15.8,41.97 h 108.9 c -2.2,-35.51 -12.5,-66.59 -31.1,-93.22 -18.5,-26.64 -43,-47.48 -73.4,-62.55 -30.4,-15.06 -65,-22.59 -103.7,-22.59" style="fill:#0f2b20;fill-opacity:1;fill-rule:nonzero;stroke:none" id="path56"></path>
      <path d="m 11115.9,3337 -146.8,204.99 h -65.4 l 186.4,233.24 h 117 l -171.9,-215.49 2.5,56.51 204.9,-279.25 z m -306.6,0 v 589.15 h 112.2 V 3337 h -112.2" style="fill:#0f2b20;fill-opacity:1;fill-rule:nonzero;stroke:none" id="path58"></path>
      <path d="m 11328.2,3337 v 438.23 h 112.2 V 3337 Z m 41.1,490.69 c -22,0 -38.3,5.77 -48.8,17.36 -10.5,11.55 -15.7,26.23 -15.7,43.98 0,17.75 5.2,32.27 15.7,43.58 10.5,11.3 26.8,16.95 48.8,16.95 22.1,0 38.2,-5.65 48.5,-16.95 10.2,-11.31 15.3,-25.83 15.3,-43.58 0,-17.75 -5.1,-32.43 -15.3,-43.98 -10.3,-11.59 -26.4,-17.36 -48.5,-17.36 z m -102.4,-136.4 v 83.94 h 173.5 v -83.94 h -173.5" style="fill:#0f2b20;fill-opacity:1;fill-rule:nonzero;stroke:none" id="path60"></path>
      <path d="m 11569.5,3337 v 438.23 h 88.8 V 3587.2 h -8.1 c 0,44.64 5.9,81.91 17.8,111.76 11.8,29.87 29.4,52.33 52.8,67.4 23.4,15.04 52.6,22.58 87.6,22.58 h 4.8 c 52.2,0 91.7,-16.82 118.7,-50.42 26.8,-33.64 40.3,-83.82 40.3,-150.51 V 3337 H 11860 v 260.69 c 0,26.89 -7.6,48.69 -23,65.36 -15.3,16.68 -36.4,25.02 -63.3,25.02 -27.5,0 -49.7,-8.47 -66.6,-25.42 -17,-16.95 -25.4,-39.68 -25.4,-68.2 V 3337 h -112.2" style="fill:#0f2b20;fill-opacity:1;fill-rule:nonzero;stroke:none" id="path62"></path>
      <path d="m 12295.8,3429.82 c 21.5,0 41.2,4.84 58.9,14.52 17.8,9.68 32,23.68 42.8,41.97 10.8,18.28 16.2,40.36 16.2,66.19 v 28.24 c 0,24.73 -5.6,45.72 -16.6,62.95 -11,17.2 -25.4,30.25 -43.2,39.13 -17.7,8.88 -37.1,13.32 -58.1,13.32 -23.7,0 -44.5,-5.52 -62.5,-16.54 -18,-11.04 -32.2,-26.51 -42.4,-46.4 -10.2,-19.92 -15.3,-43.58 -15.3,-71.02 0,-26.91 5.1,-50.32 15.3,-70.22 10.2,-19.91 24.4,-35.25 42.4,-45.99 18,-10.78 38.8,-16.15 62.5,-16.15 z m -32.3,-265.51 c -20.9,0 -42.3,0.8 -64.1,2.41 -21.8,1.61 -42.1,3.77 -60.9,6.46 v 93.61 c 19.3,-2.14 40,-4.15 62.1,-6.04 22.1,-1.88 42.8,-2.84 62.1,-2.84 36.1,0 65.3,4.32 87.6,12.93 22.3,8.6 38.7,22.18 49.2,40.74 10.5,18.56 15.8,42.1 15.8,70.62 v 86.35 l 24.2,54.88 c -1.6,-40.34 -10,-74.64 -25,-102.89 -15.1,-28.24 -35.5,-49.76 -61.4,-64.57 -25.8,-14.79 -55.7,-22.19 -89.6,-22.19 -30.1,0 -57.4,5.66 -81.9,16.95 -24.5,11.3 -45.4,26.89 -62.9,46.81 -17.5,19.89 -31.1,43.3 -40.8,70.21 -9.7,26.91 -14.5,55.68 -14.5,86.36 v 16.95 c 0,30.65 5,59.3 14.9,85.93 10,26.63 24.1,49.92 42.4,69.81 18.3,19.9 40.1,35.24 65.4,46.02 25.3,10.74 53.2,16.12 83.9,16.12 36,0 67.4,-7.79 94,-23.39 26.7,-15.61 47.5,-38.22 62.6,-67.79 15,-29.6 23.4,-65.92 25,-108.95 l -19.4,-3.24 v 189.66 h 88.8 v -386.57 c 0,-53.27 -9.2,-96.3 -27.4,-129.14 -18.3,-32.8 -46.4,-56.88 -84.4,-72.22 -37.9,-15.32 -86.5,-22.99 -145.7,-22.99" style="fill:#0f2b20;fill-opacity:1;fill-rule:nonzero;stroke:none" id="path64"></path>
      <path d="m 2715.1,2377.69 c -52.2,0 -96.18,8.35 -131.95,25.03 -35.79,16.67 -63.09,39.66 -81.91,69 -18.85,29.31 -28.26,62.55 -28.26,99.67 h 112.18 c 0,-15.62 4.3,-30.81 12.91,-45.6 8.61,-14.81 22.46,-26.78 41.57,-35.91 19.09,-9.15 44.25,-13.73 75.46,-13.73 27.97,0 51.37,4.05 70.21,12.12 18.83,8.05 32.81,18.69 41.96,31.86 9.15,13.18 13.72,28.12 13.72,44.79 0,21 -8.88,37.8 -26.63,50.45 -17.75,12.63 -45.19,20.57 -82.31,23.81 l -51.66,4.03 c -56.49,4.85 -101.55,22.46 -135.18,52.86 -33.62,30.39 -50.44,70.62 -50.44,120.66 0,37.65 8.88,70.07 26.64,97.25 17.75,27.16 42.64,48.14 74.65,62.95 32,14.79 69.53,22.18 112.58,22.18 44.65,0 83.12,-7.8 115.41,-23.39 32.28,-15.62 57.29,-37.54 75.06,-65.79 17.75,-28.24 26.63,-61.46 26.63,-99.66 h -112.19 c 0,16.14 -3.9,31.06 -11.69,44.79 -7.81,13.73 -19.38,24.75 -34.71,33.09 -15.33,8.33 -34.84,12.5 -58.51,12.5 -22.6,0 -41.43,-3.77 -56.49,-11.29 -15.07,-7.54 -26.37,-17.75 -33.9,-30.68 -7.54,-12.9 -11.3,-26.9 -11.3,-41.95 0,-18.3 6.73,-34.3 20.18,-48.03 13.44,-13.71 34.7,-21.65 63.75,-23.79 l 51.66,-4.85 c 41.97,-3.23 78.81,-12.1 110.56,-26.64 31.74,-14.53 56.36,-34.17 73.85,-58.92 17.48,-24.74 26.23,-54.6 26.23,-89.58 0,-37.12 -9.69,-69.81 -29.06,-98.05 -19.37,-28.24 -46.95,-50.17 -82.73,-65.77 -35.78,-15.61 -77.87,-23.41 -126.29,-23.41" style="fill:#0f2b20;fill-opacity:1;fill-rule:nonzero;stroke:none" id="path66"></path>
      <path d="m 3239.68,2387.38 c -40.36,0 -73.58,5.25 -99.68,15.74 -26.1,10.49 -45.59,28.24 -58.5,53.26 -12.92,25.02 -19.38,58.78 -19.38,101.28 l 0.82,397.06 h 104.9 l -0.8,-404.31 c 0,-21.53 5.77,-38.07 17.35,-49.64 11.56,-11.57 28.11,-17.35 49.63,-17.35 h 68.6 v -96.04 z m -246.96,361.55 v 82.32 h 309.9 v -82.32 h -309.9" style="fill:#0f2b20;fill-opacity:1;fill-rule:nonzero;stroke:none" id="path68"></path>
      <path d="m 3660.94,2393.03 v 129.92 h -18.56 v 144.48 c 0,25.27 -6.19,44.11 -18.56,56.48 -12.38,12.37 -31.47,18.56 -57.3,18.56 -13.45,0 -29.6,-0.27 -48.42,-0.8 -18.84,-0.53 -37.81,-1.21 -56.9,-2.02 -19.1,-0.8 -36.19,-1.75 -51.24,-2.82 v 95.22 c 12.36,1.08 26.35,2.16 41.96,3.24 15.6,1.06 31.6,1.74 48.02,2.01 16.41,0.26 31.88,0.41 46.41,0.41 45.19,0 82.71,-5.93 112.58,-17.76 29.86,-11.84 52.46,-30.4 67.79,-55.68 15.33,-25.29 23,-58.39 23,-99.26 v -271.98 z m -141.22,-11.31 c -31.76,0 -59.6,5.66 -83.53,16.95 -23.95,11.31 -42.51,27.44 -55.69,48.43 -13.19,20.98 -19.77,46.27 -19.77,75.85 0,32.29 7.93,58.65 23.8,79.09 15.86,20.45 38.19,35.79 66.99,46.02 28.77,10.21 62.54,15.32 101.28,15.32 h 101.69 v -66.97 h -103.3 c -25.83,0 -45.6,-6.34 -59.32,-18.97 -13.72,-12.64 -20.58,-28.93 -20.58,-48.83 0,-19.91 6.86,-36.06 20.58,-48.41 13.72,-12.4 33.49,-18.56 59.32,-18.56 15.6,0 29.98,2.81 43.17,8.45 13.18,5.66 24.22,15.34 33.09,29.07 8.88,13.71 13.85,32.4 14.93,56.08 l 27.44,-31.46 c -2.69,-30.68 -10.09,-56.51 -22.2,-77.48 -12.09,-21 -28.78,-37.01 -50.03,-48.03 -21.26,-11.02 -47.21,-16.55 -77.87,-16.55" style="fill:#0f2b20;fill-opacity:1;fill-rule:nonzero;stroke:none" id="path70"></path>
      <path d="m 3869.96,2393.03 v 438.22 h 88.77 v -188.04 h -8.06 c 0,44.66 5.91,81.91 17.76,111.78 11.82,29.85 29.45,52.31 52.86,67.38 23.4,15.06 52.58,22.6 87.55,22.6 h 4.86 c 52.17,0 91.72,-16.82 118.62,-50.44 26.9,-33.63 40.36,-83.8 40.36,-150.52 V 2393.03 H 4160.5 v 260.67 c 0,26.9 -7.67,48.69 -23,65.38 -15.34,16.66 -36.45,25 -63.35,25 -27.45,0 -49.64,-8.47 -66.58,-25.4 -16.95,-16.95 -25.42,-39.69 -25.42,-68.2 v -257.45 h -112.19" style="fill:#0f2b20;fill-opacity:1;fill-rule:nonzero;stroke:none" id="path72"></path>
      <path d="m 4599.53,2472.93 c 22.05,0 42.23,4.96 60.53,14.92 18.28,9.95 32.94,24.49 43.98,43.58 11.02,19.09 16.55,41.57 16.55,67.39 v 32.29 c 0,25.83 -5.66,47.46 -16.95,64.96 -11.31,17.48 -26.1,30.94 -44.39,40.36 -18.3,9.41 -38.21,14.11 -59.72,14.11 -24.21,0 -45.6,-5.78 -64.16,-17.35 -18.57,-11.57 -33.09,-27.84 -43.58,-48.82 -10.5,-20.99 -15.74,-45.48 -15.74,-73.45 0,-27.97 5.37,-52.33 16.14,-73.03 10.75,-20.72 25.43,-36.72 43.99,-48.01 18.56,-11.31 39.67,-16.95 63.35,-16.95 z m -25.03,-94.43 c -30.66,0 -58.91,5.66 -84.73,16.95 -25.83,11.29 -48.16,27.16 -66.99,47.61 -18.83,20.44 -33.36,44.26 -43.58,71.42 -10.22,27.16 -15.33,56.63 -15.33,88.37 v 16.95 c 0,31.21 4.97,60.53 14.93,87.97 9.95,27.44 23.93,51.38 41.97,71.82 18.02,20.45 39.81,36.44 65.37,48.03 25.54,11.57 53.93,17.35 85.14,17.35 34.42,0 64.69,-7.41 90.79,-22.2 26.09,-14.79 46.94,-36.99 62.54,-66.57 15.61,-29.6 24.22,-66.72 25.83,-111.38 l -33.08,38.75 v 298.59 h 112.17 v -589.13 h -88.77 v 186.43 h 19.36 c -1.61,-44.66 -10.76,-81.91 -27.43,-111.78 -16.69,-29.86 -38.62,-52.19 -65.78,-66.98 -27.17,-14.79 -57.98,-22.2 -92.41,-22.2" style="fill:#0f2b20;fill-opacity:1;fill-rule:nonzero;stroke:none" id="path74"></path>
      <path d="m 5222.55,2393.03 v 129.92 h -18.56 v 144.48 c 0,25.27 -6.19,44.11 -18.56,56.48 -12.38,12.37 -31.47,18.56 -57.3,18.56 -13.45,0 -29.6,-0.27 -48.42,-0.8 -18.84,-0.53 -37.81,-1.21 -56.9,-2.02 -19.1,-0.8 -36.19,-1.75 -51.24,-2.82 v 95.22 c 12.36,1.08 26.35,2.16 41.96,3.24 15.6,1.06 31.6,1.74 48.02,2.01 16.41,0.26 31.88,0.41 46.41,0.41 45.19,0 82.72,-5.93 112.58,-17.76 29.86,-11.84 52.46,-30.4 67.79,-55.68 15.34,-25.29 23,-58.39 23,-99.26 v -271.98 z m -141.22,-11.31 c -31.76,0 -59.6,5.66 -83.53,16.95 -23.95,11.31 -42.51,27.44 -55.69,48.43 -13.19,20.98 -19.77,46.27 -19.77,75.85 0,32.29 7.93,58.65 23.81,79.09 15.86,20.45 38.19,35.79 66.98,46.02 28.77,10.21 62.54,15.32 101.28,15.32 h 101.69 v -66.97 h -103.3 c -25.82,0 -45.6,-6.34 -59.32,-18.97 -13.72,-12.64 -20.57,-28.93 -20.57,-48.83 0,-19.91 6.85,-36.06 20.57,-48.41 13.72,-12.4 33.5,-18.56 59.32,-18.56 15.6,0 29.98,2.81 43.17,8.45 13.18,5.66 24.22,15.34 33.09,29.07 8.88,13.71 13.85,32.4 14.93,56.08 l 27.44,-31.46 c -2.69,-30.68 -10.09,-56.51 -22.19,-77.48 -12.1,-21 -28.79,-37.01 -50.04,-48.03 -21.26,-11.02 -47.21,-16.55 -77.87,-16.55" style="fill:#0f2b20;fill-opacity:1;fill-rule:nonzero;stroke:none" id="path76"></path>
      <path d="m 5431.57,2393.03 v 438.22 h 88.78 v -185.62 h -2.42 c 0,62.94 13.44,110.57 40.35,142.84 26.9,32.29 66.44,48.43 118.64,48.43 h 16.14 v -97.65 h -30.67 c -37.67,0 -66.86,-10.09 -87.56,-30.27 -20.72,-20.18 -31.07,-49.37 -31.07,-87.55 v -228.4 h -112.19" style="fill:#0f2b20;fill-opacity:1;fill-rule:nonzero;stroke:none" id="path78"></path>
      <path d="m 5971.48,2472.93 c 22.06,0 42.24,4.96 60.53,14.92 18.29,9.95 32.95,24.49 43.99,43.58 11.01,19.09 16.54,41.57 16.54,67.39 v 32.29 c 0,25.83 -5.65,47.46 -16.95,64.96 -11.3,17.48 -26.1,30.94 -44.38,40.36 -18.31,9.41 -38.21,14.11 -59.73,14.11 -24.21,0 -45.59,-5.78 -64.15,-17.35 -18.57,-11.57 -33.1,-27.84 -43.59,-48.82 -10.49,-20.99 -15.74,-45.48 -15.74,-73.45 0,-27.97 5.38,-52.33 16.15,-73.03 10.75,-20.72 25.42,-36.72 43.98,-48.01 18.56,-11.31 39.68,-16.95 63.35,-16.95 z m -25.02,-94.43 c -30.66,0 -58.91,5.66 -84.74,16.95 -25.82,11.29 -48.16,27.16 -66.98,47.61 -18.84,20.44 -33.37,44.26 -43.58,71.42 -10.22,27.16 -15.33,56.63 -15.33,88.37 v 16.95 c 0,31.21 4.97,60.53 14.93,87.97 9.94,27.44 23.93,51.38 41.97,71.82 18.02,20.45 39.81,36.44 65.37,48.03 25.54,11.57 53.93,17.35 85.14,17.35 34.42,0 64.68,-7.41 90.79,-22.2 26.09,-14.79 46.94,-36.99 62.54,-66.57 15.6,-29.6 24.22,-66.72 25.83,-111.38 l -33.09,38.75 v 298.59 h 112.18 v -589.13 h -88.78 v 186.43 h 19.37 c -1.61,-44.66 -10.76,-81.91 -27.44,-111.78 -16.68,-29.86 -38.61,-52.19 -65.77,-66.98 -27.18,-14.79 -57.98,-22.2 -92.41,-22.2" style="fill:#0f2b20;fill-opacity:1;fill-rule:nonzero;stroke:none" id="path80"></path>
      <path d="m 6487.97,2379.31 c -60.26,0 -107.47,12.79 -141.64,38.34 -34.17,25.53 -52.04,60.92 -53.66,106.13 h 100.88 c 1.61,-15.08 9.95,-28.79 25.02,-41.17 15.06,-12.39 38.73,-18.56 71.02,-18.56 26.9,0 48.29,4.83 64.15,14.52 15.87,9.7 23.82,22.86 23.82,39.55 0,14.54 -6.06,26.08 -18.16,34.71 -12.11,8.6 -32.69,14.24 -61.74,16.94 l -38.74,4.03 c -48.96,5.38 -86.63,19.37 -112.99,41.97 -26.36,22.59 -39.54,52.72 -39.54,90.39 0,30.12 7.53,55.4 22.59,75.87 15.07,20.42 35.92,35.91 62.56,46.4 26.63,10.48 57.15,15.74 91.59,15.74 53.79,0 97.37,-11.84 130.74,-35.51 33.35,-23.69 50.84,-58.39 52.46,-104.11 h -100.88 c -1.09,15.06 -8.61,27.96 -22.6,38.73 -14,10.76 -34.17,16.14 -60.53,16.14 -23.68,0 -41.96,-4.58 -54.87,-13.71 -12.92,-9.17 -19.38,-20.99 -19.38,-35.51 0,-14 5.25,-24.76 15.74,-32.29 10.49,-7.54 27.57,-12.64 51.25,-15.33 l 38.74,-4.03 c 51.65,-5.38 92.13,-19.66 121.46,-42.78 29.31,-23.13 43.98,-54.34 43.98,-93.62 0,-29.05 -7.94,-54.2 -23.81,-75.45 -15.87,-21.27 -38.06,-37.82 -66.58,-49.64 -28.53,-11.82 -62.14,-17.75 -100.88,-17.75" style="fill:#0f2b20;fill-opacity:1;fill-rule:nonzero;stroke:none" id="path82"></path>
      <path d="m 6955.24,2393.03 v 589.13 h 188.04 l 247.76,-493.89 h 26.64 l -16.15,-14.54 v 508.43 h 108.15 v -589.13 h -188.85 l -247.76,493.91 h -27.44 l 16.15,14.52 v -508.43 h -106.54" style="fill:#0f2b20;fill-opacity:1;fill-rule:nonzero;stroke:none" id="path84"></path>
      <path d="m 7842.17,2377.69 c -37.67,0 -70.62,6.47 -98.87,19.37 -28.24,12.92 -51.64,30.27 -70.2,52.06 -18.57,21.8 -32.56,46.12 -41.97,73.03 -9.42,26.91 -14.12,54.34 -14.12,82.33 v 15.32 c 0,29.07 4.7,57.16 14.12,84.34 9.41,27.17 23.4,51.38 41.97,72.63 18.56,21.25 41.56,38.2 68.99,50.85 27.44,12.63 59.18,18.96 95.24,18.96 47.33,0 87.02,-10.36 119.04,-31.06 32,-20.72 56.08,-47.9 72.23,-81.52 16.14,-33.63 24.2,-69.81 24.2,-108.54 v -40.36 h -388.18 v 68.6 h 317.98 l -34.71,-33.9 c 0,27.97 -4.03,51.93 -12.1,71.84 -8.08,19.9 -20.32,35.22 -36.72,46 -16.42,10.74 -37,16.14 -61.74,16.14 -24.76,0 -45.74,-5.65 -62.96,-16.95 -17.22,-11.31 -30.25,-27.58 -39.13,-48.83 -8.88,-21.25 -13.32,-46.68 -13.32,-76.27 0,-27.44 4.3,-51.78 12.91,-73.03 8.6,-21.26 21.79,-37.93 39.54,-50.03 17.76,-12.12 40.36,-18.16 67.8,-18.16 27.44,0 49.76,5.51 66.98,16.53 17.22,11.04 28.25,24.62 33.09,40.76 h 103.31 c -6.47,-30.14 -18.85,-56.48 -37.13,-79.09 -18.3,-22.6 -41.56,-40.08 -69.81,-52.46 -28.25,-12.37 -60.4,-18.56 -96.44,-18.56" style="fill:#0f2b20;fill-opacity:1;fill-rule:nonzero;stroke:none" id="path86"></path>
      <path d="m 8336.89,2387.38 c -40.36,0 -73.58,5.25 -99.68,15.74 -26.1,10.49 -45.59,28.24 -58.5,53.26 -12.92,25.02 -19.38,58.78 -19.38,101.28 l 0.82,397.06 h 104.9 l -0.8,-404.31 c 0,-21.53 5.77,-38.07 17.35,-49.64 11.56,-11.57 28.11,-17.35 49.63,-17.35 h 68.6 v -96.04 z m -246.96,361.55 v 82.32 h 309.9 v -82.32 h -309.9" style="fill:#0f2b20;fill-opacity:1;fill-rule:nonzero;stroke:none" id="path88"></path>
      <path d="m 8927.63,2393.03 100.88,438.22 h 101.68 l -105.72,-438.22 z m -35.51,0 v 92 h 89.58 l -0.81,-92 z m -247.76,0 83.12,423.7 h 129.13 l 96.04,-423.7 h -88.78 l -97.65,421.27 h 46.81 l -86.35,-421.27 z m -33.09,0 -0.8,92 h 89.58 v -92 z m -45.19,0 -119.44,438.22 h 108.94 l 113.8,-438.22 h -103.3" style="fill:#0f2b20;fill-opacity:1;fill-rule:nonzero;stroke:none" id="path90"></path>
      <path d="m 9419.11,2473.73 c 27.44,0 50.57,6.06 69.41,18.16 18.83,12.1 33.08,28.52 42.77,49.22 9.69,20.72 14.53,44.26 14.53,70.62 0,26.9 -4.99,50.72 -14.94,71.44 -9.95,20.7 -24.48,37.12 -43.58,49.22 -19.1,12.09 -41.83,18.15 -68.19,18.15 -26.37,0 -49.1,-6.06 -68.19,-18.15 -19.11,-12.1 -33.77,-28.52 -43.98,-49.22 -10.24,-20.72 -15.34,-44.54 -15.34,-71.44 0,-26.36 4.97,-49.9 14.93,-70.62 9.95,-20.7 24.34,-37.12 43.17,-49.22 18.83,-12.1 41.97,-18.16 69.41,-18.16 z m 0,-96.04 c -38.74,0 -72.91,6.19 -102.49,18.56 -29.6,12.38 -54.62,29.18 -75.06,50.45 -20.45,21.25 -35.91,45.32 -46.4,72.23 -10.49,26.89 -15.74,54.87 -15.74,83.92 v 16.95 c 0,30.13 5.51,58.77 16.55,85.95 11.02,27.17 26.9,51.38 47.61,72.63 20.71,21.25 45.87,37.95 75.46,50.05 29.58,12.1 62.95,18.15 100.07,18.15 37.12,0 70.48,-6.05 100.08,-18.15 29.58,-12.1 54.74,-28.8 75.46,-50.05 20.7,-21.25 36.44,-45.46 47.2,-72.63 10.76,-27.18 16.14,-55.82 16.14,-85.95 v -16.95 c 0,-29.05 -5.24,-57.03 -15.73,-83.92 -10.49,-26.91 -25.96,-50.98 -46.41,-72.23 -20.45,-21.27 -45.46,-38.07 -75.05,-50.45 -29.6,-12.37 -63.49,-18.56 -101.69,-18.56" style="fill:#0f2b20;fill-opacity:1;fill-rule:nonzero;stroke:none" id="path92"></path>
      <path d="m 9756.44,2393.03 v 438.22 h 88.78 v -185.62 h -2.42 c 0,62.94 13.44,110.57 40.35,142.84 26.9,32.29 66.44,48.43 118.65,48.43 h 16.1 v -97.65 h -30.64 c -37.67,0 -66.86,-10.09 -87.56,-30.27 -20.72,-20.18 -31.07,-49.37 -31.07,-87.55 v -228.4 h -112.19" style="fill:#0f2b20;fill-opacity:1;fill-rule:nonzero;stroke:none" id="path94"></path>
      <path d="m 10399.6,2393.03 -146.8,204.99 h -65.4 l 186.4,233.23 h 117 l -171.9,-215.48 2.5,56.49 204.9,-279.23 z m -306.6,0 v 589.13 h 112.2 V 2393.03 H 10093" style="fill:#0f2b20;fill-opacity:1;fill-rule:nonzero;stroke:none" id="path96"></path>
    </g>
  </g>
</svg>
