<?xml version="1.0" encoding="UTF-8" standalone="no"?>
<!-- Created with Inkscape (http://www.inkscape.org/) -->

<svg
   xmlns:dc="http://purl.org/dc/elements/1.1/"
   xmlns:cc="http://creativecommons.org/ns#"
   xmlns:rdf="http://www.w3.org/1999/02/22-rdf-syntax-ns#"
   xmlns:svg="http://www.w3.org/2000/svg"
   xmlns="http://www.w3.org/2000/svg"
   xmlns:sodipodi="http://sodipodi.sourceforge.net/DTD/sodipodi-0.dtd"
   xmlns:inkscape="http://www.inkscape.org/namespaces/inkscape"
   width="329.26642"
   height="181.68932"
   viewBox="0 0 308.68726 170.33374"
   id="svg4267"
   version="1.1"
   inkscape:version="0.92.4 (5da689c313, 2019-01-14)"
   sodipodi:docname="logo-nothing2hide.svg">
  <defs
     id="defs4269" />
  <sodipodi:namedview
     id="base"
     pagecolor="#ffffff"
     bordercolor="#666666"
     borderopacity="1.0"
     inkscape:pageopacity="0.0"
     inkscape:pageshadow="2"
     inkscape:zoom="0.98994949"
     inkscape:cx="436.36041"
     inkscape:cy="129.38767"
     inkscape:document-units="px"
     inkscape:current-layer="layer1"
     showgrid="false"
     inkscape:window-width="1600"
     inkscape:window-height="836"
     inkscape:window-x="0"
     inkscape:window-y="27"
     inkscape:window-maximized="1"
     units="px"
     fit-margin-top="0"
     fit-margin-left="0"
     fit-margin-right="0"
     fit-margin-bottom="0" />
  <metadata
     id="metadata4272">
    <rdf:RDF>
      <cc:Work
         rdf:about="">
        <dc:format>image/svg+xml</dc:format>
        <dc:type
           rdf:resource="http://purl.org/dc/dcmitype/StillImage" />
        <dc:title />
      </cc:Work>
    </rdf:RDF>
  </metadata>
  <g
     inkscape:label="Calque 1"
     inkscape:groupmode="layer"
     id="layer1"
     transform="translate(-33.156362,-779.69527)">
    <g
       id="g858">
      <path
         d="m 71.545528,839.2771 h -7.427546 l -23.53402,-45.29189 v 45.29189 h -7.427546 v -58.7745 h 7.427546 l 23.614754,45.49372 V 780.5026 h 7.346812 z"
         style="font-style:normal;font-variant:normal;font-weight:normal;font-stretch:normal;font-size:82.67182159px;line-height:100%;font-family:'Roboto Condensed';-inkscape-font-specification:'Roboto Condensed, Normal';text-align:start;letter-spacing:0px;word-spacing:0px;writing-mode:lr-tb;text-anchor:start;fill:#333333;fill-opacity:1;stroke:none;stroke-width:0.6882664px;stroke-linecap:butt;stroke-linejoin:miter;stroke-opacity:1"
         id="path827"
         inkscape:connector-curvature="0" />
      <path
         d="m 122.56954,815.05684 q 0,12.0294 -5.12662,18.5285 -5.12662,6.4991 -14.57252,6.4991 -9.082601,0 -14.370691,-6.29727 -5.247723,-6.33763 -5.449559,-17.88262 v -11.06059 q 0,-11.78719 5.207356,-18.44776 5.207356,-6.70094 14.532154,-6.70094 9.28444,0 14.45142,6.41837 5.20736,6.378 5.32846,18.24593 z m -7.38718,-10.29361 q 0,-9.3248 -3.0679,-13.84592 -3.02753,-4.56148 -9.3248,-4.56148 -6.09543,0 -9.244063,4.60185 -3.108267,4.60185 -3.148634,13.56335 v 10.53581 q 0,9.00186 3.108266,13.72481 3.148634,4.72295 9.365171,4.72295 6.21653,0 9.2037,-4.35964 2.98716,-4.35965 3.10826,-13.36151 z"
         style="font-style:normal;font-variant:normal;font-weight:normal;font-stretch:normal;font-size:82.67182159px;line-height:100%;font-family:'Roboto Condensed';-inkscape-font-specification:'Roboto Condensed, Normal';text-align:start;letter-spacing:0px;word-spacing:0px;writing-mode:lr-tb;text-anchor:start;fill:#333333;fill-opacity:1;stroke:none;stroke-width:0.6882664px;stroke-linecap:butt;stroke-linejoin:miter;stroke-opacity:1"
         id="path829"
         inkscape:connector-curvature="0" />
      <path
         d="m 167.29629,786.8806 h -15.4606 v 52.3965 h -7.38718 v -52.3965 h -15.42023 v -6.378 h 38.26801 z"
         style="font-style:normal;font-variant:normal;font-weight:normal;font-stretch:normal;font-size:82.67182159px;line-height:100%;font-family:'Roboto Condensed';-inkscape-font-specification:'Roboto Condensed, Normal';text-align:start;letter-spacing:0px;word-spacing:0px;writing-mode:lr-tb;text-anchor:start;fill:#333333;fill-opacity:1;stroke:none;stroke-width:0.6882664px;stroke-linecap:butt;stroke-linejoin:miter;stroke-opacity:1"
         id="path831"
         inkscape:connector-curvature="0" />
      <path
         d="m 214.5258,839.2771 h -7.42755 v -27.16706 h -23.65512 v 27.16706 h -7.38718 v -58.7745 h 7.38718 v 25.26981 h 23.65512 V 780.5026 h 7.42755 z"
         style="font-style:normal;font-variant:normal;font-weight:normal;font-stretch:normal;font-size:82.67182159px;line-height:100%;font-family:'Roboto Condensed';-inkscape-font-specification:'Roboto Condensed, Normal';text-align:start;letter-spacing:0px;word-spacing:0px;writing-mode:lr-tb;text-anchor:start;fill:#333333;fill-opacity:1;stroke:none;stroke-width:0.6882664px;stroke-linecap:butt;stroke-linejoin:miter;stroke-opacity:1"
         id="path833"
         inkscape:connector-curvature="0" />
      <path
         d="m 235.11302,839.2771 h -7.38718 v -58.7745 h 7.38718 z"
         style="font-style:normal;font-variant:normal;font-weight:normal;font-stretch:normal;font-size:82.67182159px;line-height:100%;font-family:'Roboto Condensed';-inkscape-font-specification:'Roboto Condensed, Normal';text-align:start;letter-spacing:0px;word-spacing:0px;writing-mode:lr-tb;text-anchor:start;fill:#333333;fill-opacity:1;stroke:none;stroke-width:0.6882664px;stroke-linecap:butt;stroke-linejoin:miter;stroke-opacity:1"
         id="path835"
         inkscape:connector-curvature="0" />
      <path
         d="m 286.45997,839.2771 h -7.42754 l -23.53402,-45.29189 v 45.29189 h -7.42755 v -58.7745 h 7.42755 l 23.61475,45.49372 V 780.5026 h 7.34681 z"
         style="font-style:normal;font-variant:normal;font-weight:normal;font-stretch:normal;font-size:82.67182159px;line-height:100%;font-family:'Roboto Condensed';-inkscape-font-specification:'Roboto Condensed, Normal';text-align:start;letter-spacing:0px;word-spacing:0px;writing-mode:lr-tb;text-anchor:start;fill:#333333;fill-opacity:1;stroke:none;stroke-width:0.6882664px;stroke-linecap:butt;stroke-linejoin:miter;stroke-opacity:1"
         id="path837"
         inkscape:connector-curvature="0" />
      <path
         d="m 336.03076,831.97065 -1.29175,1.61469 q -5.57066,6.4991 -16.30831,6.4991 -9.52663,0 -14.97619,-6.29727 -5.40919,-6.33763 -5.53029,-17.88262 v -11.54499 q 0,-12.35233 4.92478,-18.48813 4.96516,-6.17617 14.81473,-6.17617 8.39635,0 13.11931,4.68258 4.76331,4.68259 5.24772,13.36151 h -7.38718 q -0.44404,-5.48992 -3.0679,-8.55782 -2.58349,-3.10827 -7.87158,-3.10827 -6.33764,0 -9.28444,4.15781 -2.9468,4.11745 -3.0679,13.20004 v 11.98903 q 0,8.88077 3.39084,13.64408 3.39084,4.72295 9.72847,4.72295 5.97433,0 9.0826,-2.90643 l 1.08991,-1.00917 v -13.56335 h -10.73765 v -6.29727 h 18.12483 z"
         style="font-style:normal;font-variant:normal;font-weight:normal;font-stretch:normal;font-size:82.67182159px;line-height:100%;font-family:'Roboto Condensed';-inkscape-font-specification:'Roboto Condensed, Normal';text-align:start;letter-spacing:0px;word-spacing:0px;writing-mode:lr-tb;text-anchor:start;fill:#333333;fill-opacity:1;stroke:none;stroke-width:0.6882664px;stroke-linecap:butt;stroke-linejoin:miter;stroke-opacity:1"
         id="path839"
         inkscape:connector-curvature="0" />
      <g
         id="text4049-37"
         style="font-style:normal;font-variant:normal;font-weight:normal;font-stretch:normal;font-size:24.33432388px;line-height:0%;font-family:'Roboto Condensed';-inkscape-font-specification:'Roboto Condensed, Normal';text-align:start;letter-spacing:0px;word-spacing:0px;writing-mode:lr-tb;text-anchor:start;display:inline;fill:#ffffff;fill-opacity:1;stroke:none;stroke-width:0.66132367px;stroke-linecap:butt;stroke-linejoin:miter;stroke-opacity:1"
         aria-label="2">
        <path
           id="path851"
           style="font-size:126.15146637px;line-height:1;fill:#ffffff;fill-opacity:1;stroke-width:0.66132367px"
           d="M 84.713383,950.02899 H 34.573102 v -8.19245 l 25.56292,-33.87857 q 5.790155,-7.82287 8.007661,-12.81226 2.279104,-5.05098 2.279104,-10.65635 0,-7.1453 -3.32626,-11.58031 -3.326259,-4.43501 -8.74683,-4.43501 -6.837311,0 -10.594752,4.743 -3.695844,4.6814 -3.695844,13.55143 H 33.156362 q 0,-12.38108 6.775714,-20.01916 6.775713,-7.63807 18.417621,-7.63807 10.717947,0 16.877687,6.59092 6.159739,6.52932 6.159739,17.43206 0,13.30504 -13.859414,31.47627 l -19.957556,26.11729 h 37.14323 z" />
      </g>
      <path
         d="m 162.38635,950.02899 h -11.683 v -42.73183 h -37.20781 v 42.73183 h -11.6195 v -92.44807 h 11.6195 v 39.74759 h 37.20781 v -39.74759 h 11.683 z"
         style="font-style:normal;font-variant:normal;font-weight:normal;font-stretch:normal;font-size:130.03684998px;line-height:1;font-family:'Roboto Condensed';-inkscape-font-specification:'Roboto Condensed, Normal';text-align:start;letter-spacing:0px;word-spacing:0px;writing-mode:lr-tb;text-anchor:start;fill:#333333;fill-opacity:1;stroke:none;stroke-width:0.6882664px;stroke-linecap:butt;stroke-linejoin:miter;stroke-opacity:1"
         id="path842"
         inkscape:connector-curvature="0" />
      <path
         d="m 194.76858,950.02899 h -11.61951 v -92.44807 h 11.61951 z"
         style="font-style:normal;font-variant:normal;font-weight:normal;font-stretch:normal;font-size:130.03684998px;line-height:1;font-family:'Roboto Condensed';-inkscape-font-specification:'Roboto Condensed, Normal';text-align:start;letter-spacing:0px;word-spacing:0px;writing-mode:lr-tb;text-anchor:start;fill:#333333;fill-opacity:1;stroke:none;stroke-width:0.6882664px;stroke-linecap:butt;stroke-linejoin:miter;stroke-opacity:1"
         id="path844"
         inkscape:connector-curvature="0" />
      <path
         d="m 215.15033,950.02899 v -92.44807 h 22.03261 q 16.19111,0 25.14385,10.15913 8.95273,10.09563 8.95273,28.44556 v 15.49267 q 0,18.34993 -9.07972,28.38207 -9.07972,9.96864 -26.35024,9.96864 z m 11.61951,-82.41593 v 72.44729 h 9.3337 q 12.25444,0 17.90546,-6.9844 5.65102,-7.0479 5.778,-20.82622 v -16.38159 q 0,-14.60375 -5.65101,-21.39767 -5.58752,-6.85741 -16.95305,-6.85741 z"
         style="font-style:normal;font-variant:normal;font-weight:normal;font-stretch:normal;font-size:130.03684998px;line-height:1;font-family:'Roboto Condensed';-inkscape-font-specification:'Roboto Condensed, Normal';text-align:start;letter-spacing:0px;word-spacing:0px;writing-mode:lr-tb;text-anchor:start;fill:#333333;fill-opacity:1;stroke:none;stroke-width:0.6882664px;stroke-linecap:butt;stroke-linejoin:miter;stroke-opacity:1"
         id="path846"
         inkscape:connector-curvature="0" />
      <path
         d="m 333.63117,907.29716 h -32.6997 v 32.76319 h 38.09674 v 9.96864 h -49.71624 v -92.44807 h 49.08129 v 10.03214 h -37.46179 v 29.71545 h 32.6997 z"
         style="font-style:normal;font-variant:normal;font-weight:normal;font-stretch:normal;font-size:130.03684998px;line-height:1;font-family:'Roboto Condensed';-inkscape-font-specification:'Roboto Condensed, Normal';text-align:start;letter-spacing:0px;word-spacing:0px;writing-mode:lr-tb;text-anchor:start;fill:#333333;fill-opacity:1;stroke:none;stroke-width:0.6882664px;stroke-linecap:butt;stroke-linejoin:miter;stroke-opacity:1"
         id="path848"
         inkscape:connector-curvature="0" />
    </g>
  </g>
</svg>
